<?xml version="1.0" encoding="UTF-8" standalone="no"?>
<svg
   xmlns:dc="http://purl.org/dc/elements/1.1/"
   xmlns:cc="http://creativecommons.org/ns#"
   xmlns:rdf="http://www.w3.org/1999/02/22-rdf-syntax-ns#"
   xmlns:svg="http://www.w3.org/2000/svg"
   xmlns="http://www.w3.org/2000/svg"
   xmlns:sodipodi="http://sodipodi.sourceforge.net/DTD/sodipodi-0.dtd"
   xmlns:inkscape="http://www.inkscape.org/namespaces/inkscape"
   version="1.1"
   x="0px"
   y="0px"
   viewBox="0 0 87.099998 86.300003"
   enable-background="new 0 0 100 100"
   xml:space="preserve"
   id="svg14"
   sodipodi:docname="bath.svg"
   width="87.099998"
   height="86.300003"
   inkscape:version="1.0.1 (3bc2e813f5, 2020-09-07)"><metadata
     id="metadata20"><rdf:RDF><cc:Work
         rdf:about=""><dc:format>image/svg+xml</dc:format><dc:type
           rdf:resource="http://purl.org/dc/dcmitype/StillImage" /><dc:title></dc:title></cc:Work></rdf:RDF></metadata><defs
     id="defs18" /><sodipodi:namedview
     pagecolor="#ffffff"
     bordercolor="#666666"
     borderopacity="1"
     objecttolerance="10"
     gridtolerance="10"
     guidetolerance="10"
     inkscape:pageopacity="0"
     inkscape:pageshadow="2"
     inkscape:window-width="1920"
     inkscape:window-height="1017"
     id="namedview16"
     showgrid="false"
     fit-margin-top="0"
     fit-margin-left="0"
     fit-margin-right="0"
     fit-margin-bottom="0"
     inkscape:zoom="6.8"
     inkscape:cx="43.5"
     inkscape:cy="44.235294"
     inkscape:window-x="-8"
     inkscape:window-y="-8"
     inkscape:window-maximized="1"
     inkscape:current-layer="svg14" /><path
     d="M 81,45 H 7 V 6 c 0,-2.2 1.8,-4 4,-4 3,0 5.7,1.2 7.8,3.2 L 19.6,6 17.5,8.1 V 10 c 0,2.5 1,4.9 2.8,6.7 L 21,17.4 32.4,6 31.7,5.3 C 29.9,3.5 27.5,2.5 25,2.5 H 23.1 L 21,4.6 20.2,3.8 C 17.7,1.3 14.4,0 11,0 7.7,0 5,2.7 5,6 V 45.1 C 2.2,45.6 0,48 0,51 c 0,3.1 2.3,5.6 5.3,5.9 l 6.1,18.6 c 0.8,2.4 3.1,4 5.6,4 h 2.6 l -2.1,6.2 1.9,0.6 2.3,-6.8 h 43.6 l 2.3,6.8 1.9,-0.6 -2.1,-6.2 H 70 c 2.6,0 4.8,-1.6 5.6,-4 L 81.8,57 c 3,-0.4 5.3,-2.9 5.3,-5.9 C 87,47.7 84.3,45 81,45 Z M 23.9,4.5 H 25 c 1.7,0 3.3,0.5 4.6,1.5 L 21,14.5 C 20,13.2 19.5,11.6 19.5,9.9 V 8.8 Z m 49.8,70.3 c -0.5,1.6 -2,2.7 -3.7,2.7 H 17 c -1.7,0 -3.2,-1.1 -3.7,-2.7 L 7.4,57 H 79.6 Z M 81,55 H 6 C 3.8,55 2,53.2 2,51 2,48.8 3.8,47 6,47 h 75 c 2.2,0 4,1.8 4,4 0,2.2 -1.8,4 -4,4 z"
     id="path2" /><rect
     x="-48.615002"
     y="14.673759"
     transform="rotate(-113.19859)"
     width="18.999069"
     height="1.999902"
     id="rect4"
     style="stroke-width:0.999951" /><rect
     x="29.058413"
     y="-20.277901"
     transform="rotate(60.948735)"
     width="25.700424"
     height="2.0000329"
     id="rect6"
     style="stroke-width:1.00002" /><rect
     x="28.657379"
     y="-25.514753"
     transform="rotate(57.528808)"
     width="32.601486"
     height="2.0000913"
     id="rect8"
     style="stroke-width:1.00005" /></svg>
