<?xml version="1.0" encoding="UTF-8" standalone="no"?>
<svg
   xmlns:dc="http://purl.org/dc/elements/1.1/"
   xmlns:cc="http://creativecommons.org/ns#"
   xmlns:rdf="http://www.w3.org/1999/02/22-rdf-syntax-ns#"
   xmlns:svg="http://www.w3.org/2000/svg"
   xmlns="http://www.w3.org/2000/svg"
   xmlns:sodipodi="http://sodipodi.sourceforge.net/DTD/sodipodi-0.dtd"
   xmlns:inkscape="http://www.inkscape.org/namespaces/inkscape"
   viewBox="0 0 26 36.5"
   version="1.1"
   id="svg6"
   sodipodi:docname="location.svg"
   inkscape:version="1.0.1 (3bc2e813f5, 2020-09-07)"
   width="26"
   height="36.5">
  <metadata
     id="metadata12">
    <rdf:RDF>
      <cc:Work
         rdf:about="">
        <dc:format>image/svg+xml</dc:format>
        <dc:type
           rdf:resource="http://purl.org/dc/dcmitype/StillImage" />
        <dc:title></dc:title>
      </cc:Work>
    </rdf:RDF>
  </metadata>
  <defs
     id="defs10" />
  <sodipodi:namedview
     pagecolor="#ffffff"
     bordercolor="#666666"
     borderopacity="1"
     objecttolerance="10"
     gridtolerance="10"
     guidetolerance="10"
     inkscape:pageopacity="0"
     inkscape:pageshadow="2"
     inkscape:window-width="1920"
     inkscape:window-height="1017"
     id="namedview8"
     showgrid="false"
     inkscape:zoom="32"
     inkscape:cx="7.338468"
     inkscape:cy="17.674432"
     inkscape:window-x="-8"
     inkscape:window-y="-8"
     inkscape:window-maximized="1"
     inkscape:current-layer="svg6"
     inkscape:document-rotation="0"
     fit-margin-top="0"
     fit-margin-left="0"
     fit-margin-right="0"
     fit-margin-bottom="0" />
  <path
     d="M 13,36.5 12.2,35.6 C 11.7,35.1 0,21.3 0,13 0,5.8 5.8,0 13,0 20.2,0 26,5.8 26,13 26,21.3 14.3,35.1 13.8,35.7 Z M 13,2 C 6.9,2 2,6.9 2,13 2,19.4 10.4,30.2 13,33.4 15.6,30.2 24,19.4 24,13 24,6.9 19.1,2 13,2 Z"
     id="path2"
     style="opacity:1;fill:#c2c2c2;fill-opacity:1"
     inkscape:label="path2" />
  <path
     d="m 13,18 c -2.8,0 -5,-2.2 -5,-5 0,-2.8 2.2,-5 5,-5 2.8,0 5,2.2 5,5 0,2.8 -2.2,5 -5,5 z m 0,-8 c -1.7,0 -3,1.3 -3,3 0,1.7 1.3,3 3,3 1.7,0 3,-1.3 3,-3 0,-1.7 -1.3,-3 -3,-3 z"
     id="path4"
     style="fill:#c2c2c2;fill-opacity:1" />
</svg>
