<?xml version="1.0" encoding="UTF-8" standalone="no"?>
<svg
   xmlns:dc="http://purl.org/dc/elements/1.1/"
   xmlns:cc="http://creativecommons.org/ns#"
   xmlns:rdf="http://www.w3.org/1999/02/22-rdf-syntax-ns#"
   xmlns:svg="http://www.w3.org/2000/svg"
   xmlns="http://www.w3.org/2000/svg"
   xmlns:sodipodi="http://sodipodi.sourceforge.net/DTD/sodipodi-0.dtd"
   xmlns:inkscape="http://www.inkscape.org/namespaces/inkscape"
   version="1.1"
   style="overflow:visible"
   viewBox="-250 -250 399.99957 397.2431"
   height="397.2431"
   width="399.99957"
   id="svg18"
   sodipodi:docname="paw.svg"
   inkscape:version="1.0.1 (3bc2e813f5, 2020-09-07)">
  <metadata
     id="metadata24">
    <rdf:RDF>
      <cc:Work
         rdf:about="">
        <dc:format>image/svg+xml</dc:format>
        <dc:type
           rdf:resource="http://purl.org/dc/dcmitype/StillImage" />
        <dc:title></dc:title>
      </cc:Work>
    </rdf:RDF>
  </metadata>
  <defs
     id="defs22" />
  <sodipodi:namedview
     pagecolor="#ffffff"
     bordercolor="#666666"
     borderopacity="1"
     objecttolerance="10"
     gridtolerance="10"
     guidetolerance="10"
     inkscape:pageopacity="0"
     inkscape:pageshadow="2"
     inkscape:window-width="1920"
     inkscape:window-height="1017"
     id="namedview20"
     showgrid="false"
     fit-margin-top="0"
     fit-margin-left="0"
     fit-margin-right="0"
     fit-margin-bottom="0"
     inkscape:zoom="2.4041631"
     inkscape:cx="191.98139"
     inkscape:cy="91.629343"
     inkscape:window-x="-8"
     inkscape:window-y="-8"
     inkscape:window-maximized="1"
     inkscape:current-layer="svg16"
     inkscape:document-rotation="0" />
  <svg
     version="1.1"
     y="-250"
     x="-250"
     viewBox="-250 -250 500 500"
     height="500"
     width="500"
     style="overflow:visible"
     id="svg16"
     transform="translate(-0.58840783,-0.166547)">
    <g
       stroke-linejoin="round"
       fill="#ffffff"
       id="g14"
       style="display:inline;opacity:1;stroke:#000000;stroke-opacity:1"
       transform="translate(-49.411765,-51.212153)">
      <path
         stroke-linecap="butt"
         stroke-linejoin="round"
         stroke-width="10"
         stroke-opacity="1"
         stroke="#444444"
         fill="#ffffff"
         d="m 133.936,106.748 c 0,59.9033 -59.968001,86.8738 -133.942001,86.8738 -73.9737,0 -133.941999,-26.9705 -133.941999,-86.8738 0,-59.903201 59.967999,-145.477001 133.941999,-145.477001 73.9738,0 133.942001,85.5735 133.942001,145.477001 z"
         id="path4"
         style="display:inline;stroke:#000000;stroke-opacity:1" />
      <path
         stroke-linecap="butt"
         stroke-linejoin="round"
         stroke-width="10"
         stroke-opacity="1"
         stroke="#444444"
         fill="#ffffff"
         d="m -12.212,-127.598 a 39.3571,66.0233 0 0 1 -39.3571,66.0233 39.3571,66.0233 0 0 1 -39.3572,-66.0233 39.3571,66.0233 0 0 1 39.3572,-66.0233 39.3571,66.0233 0 0 1 39.3571,66.0233 z"
         id="path6"
         style="display:inline;stroke:#000000;stroke-opacity:1" />
      <path
         stroke-linecap="butt"
         stroke-linejoin="round"
         stroke-width="10"
         stroke-opacity="1"
         stroke="#444444"
         fill="#ffffff"
         d="M 90.939,-122.519 A 39.3571,66.0233 0 0 1 51.5818,-56.4957 39.3571,66.0233 0 0 1 12.2247,-122.519 39.3571,66.0233 0 0 1 51.5818,-188.5423 39.3571,66.0233 0 0 1 90.939,-122.519 Z"
         id="path8"
         style="display:inline;stroke:#000000;stroke-opacity:1" />
      <path
         stroke-linecap="butt"
         stroke-linejoin="round"
         stroke-width="10"
         stroke-opacity="1"
         stroke="#444444"
         fill="#ffffff"
         d="m -115.87,-71.73 c 5.82022,35.9968 -6.85706,67.9907 -28.3152,71.4597 -21.4579,3.46985 -43.5709,-22.8984 -49.3908,-58.8949 -5.82021,-35.9968 6.85706,-67.9907 28.3152,-71.4597 21.4579,-3.46985 43.5709,22.8984 49.3908,58.8949 z"
         id="path10"
         style="display:inline;stroke:#000000;stroke-opacity:1" />
      <path
         stroke-linecap="butt"
         stroke-linejoin="round"
         stroke-width="10"
         stroke-opacity="1"
         stroke="#444444"
         fill="#ffffff"
         d="m 115.87,-71.73 c -5.81997,35.9966 6.85726,67.9904 28.3152,71.4597 21.4579,3.47021 43.5711,-22.8982 49.3908,-58.8949 5.81998,-35.9966 -6.85725,-67.9904 -28.3152,-71.4597 -21.4579,-3.4702 -43.5711,22.8981 -49.3908,58.8949 z"
         id="path12"
         style="display:inline;opacity:1;stroke:#000000;stroke-opacity:1" />
    </g>
  </svg>
</svg>
